# WaveFront *.obj file (generated by Autodesk ATF)

mtllib Button.mtl

g Solid1

v 10.000000 0.000000 7.500000
v 10.000000 0.000000 -2.000000
v -2.000000 0.000000 -2.000000
v -2.000000 0.000000 7.500000
v 8.000000 0.000000 5.500000
v 0.000000 0.000000 5.500000
v 0.000000 0.000000 0.000000
v 8.000000 0.000000 0.000000
v 10.000000 -1.000000 -2.000000
v -2.000000 -1.000000 -2.000000
v -2.000000 -1.000000 7.500000
v 10.000000 -1.000000 7.500000
v 8.000000 1.500000 5.500000
v 0.000000 1.500000 5.500000
v 8.000000 1.500000 0.000000
v 0.000000 1.500000 0.000000
vt 0.475000 -0.600000 0.000000
vt 0.475000 0.600000 0.000000
vt 0.275000 0.400000 0.000000
vt -0.475000 0.600000 0.000000
vt -0.275000 0.400000 0.000000
vt -0.475000 -0.600000 0.000000
vt -0.275000 -0.400000 0.000000
vt 0.275000 -0.400000 0.000000
vt 0.000000 0.000000 0.000000
vt 1.200000 0.000000 0.000000
vt 0.000000 0.100000 0.000000
vt 1.200000 0.100000 0.000000
vt 0.000000 0.000000 0.000000
vt 0.950000 0.000000 0.000000
vt 0.000000 0.100000 0.000000
vt 0.950000 0.100000 0.000000
vt 0.000000 0.000000 0.000000
vt 1.200000 0.000000 0.000000
vt 0.000000 0.100000 0.000000
vt 1.200000 0.100000 0.000000
vt 0.000000 0.000000 0.000000
vt 0.950000 0.000000 0.000000
vt 0.000000 0.100000 0.000000
vt 0.950000 0.100000 0.000000
vt 0.475000 0.600000 0.000000
vt -0.475000 0.600000 0.000000
vt 0.475000 -0.600000 0.000000
vt -0.475000 -0.600000 0.000000
vt 0.000000 0.150000 0.000000
vt -0.800000 0.150000 0.000000
vt 0.000000 0.000000 0.000000
vt -0.800000 0.000000 0.000000
vt 0.050000 0.000000 0.000000
vt 0.600000 0.000000 0.000000
vt 0.050000 0.150000 0.000000
vt 0.600000 0.150000 0.000000
vt 0.550000 0.150000 0.000000
vt 0.000000 0.150000 0.000000
vt 0.550000 0.000000 0.000000
vt 0.000000 0.000000 0.000000
vt -0.000000 0.000000 0.000000
vt 0.800000 0.000000 0.000000
vt -0.000000 0.150000 0.000000
vt 0.800000 0.150000 0.000000
vt 0.250000 0.400000 0.000000
vt -0.300000 0.400000 0.000000
vt 0.250000 -0.400000 0.000000
vt -0.300000 -0.400000 0.000000
vn -0.000000 0.100000 -0.000000
vn -0.000000 0.100000 -0.000000
vn -0.000000 0.100000 -0.000000
vn -0.000000 0.100000 -0.000000
vn -0.000000 0.100000 -0.000000
vn -0.000000 0.100000 -0.000000
vn -0.000000 0.100000 -0.000000
vn -0.000000 0.100000 -0.000000
vn 0.000000 0.000000 -0.100000
vn 0.000000 0.000000 -0.100000
vn 0.000000 0.000000 -0.100000
vn 0.000000 0.000000 -0.100000
vn -0.100000 0.000000 0.000000
vn -0.100000 0.000000 0.000000
vn -0.100000 0.000000 0.000000
vn -0.100000 0.000000 0.000000
vn 0.000000 0.000000 0.100000
vn 0.000000 0.000000 0.100000
vn 0.000000 0.000000 0.100000
vn 0.000000 0.000000 0.100000
vn 0.100000 0.000000 0.000000
vn 0.100000 0.000000 0.000000
vn 0.100000 0.000000 0.000000
vn 0.100000 0.000000 0.000000
vn 0.000000 -0.100000 0.000000
vn 0.000000 -0.100000 0.000000
vn 0.000000 -0.100000 0.000000
vn 0.000000 -0.100000 0.000000
vn 0.000000 0.000000 0.100000
vn 0.000000 0.000000 0.100000
vn 0.000000 0.000000 0.100000
vn 0.000000 0.000000 0.100000
vn 0.100000 0.000000 0.000000
vn 0.100000 0.000000 0.000000
vn 0.100000 0.000000 0.000000
vn 0.100000 0.000000 0.000000
vn -0.100000 0.000000 0.000000
vn -0.100000 0.000000 0.000000
vn -0.100000 0.000000 0.000000
vn -0.100000 0.000000 0.000000
vn 0.000000 0.000000 -0.100000
vn 0.000000 0.000000 -0.100000
vn 0.000000 0.000000 -0.100000
vn 0.000000 0.000000 -0.100000
vn 0.000000 0.100000 0.000000
vn 0.000000 0.100000 0.000000
vn 0.000000 0.100000 0.000000
vn 0.000000 0.100000 0.000000
usemtl 191,191,191
f 4/1/1 1/2/2 5/3/3
f 5/3/3 1/2/2 2/4/4
f 5/3/3 2/4/4 8/5/5
f 8/5/5 2/4/4 3/6/6
f 8/5/5 3/6/6 7/7/7
f 7/7/7 3/6/6 4/1/1
f 7/7/7 4/1/1 6/8/8
f 6/8/8 4/1/1 5/3/3
f 3/9/9 2/10/10 10/11/11
f 10/11/11 2/10/10 9/12/12
f 4/13/13 3/14/14 11/15/15
f 11/15/15 3/14/14 10/16/16
f 1/17/17 4/18/18 12/19/19
f 12/19/19 4/18/18 11/20/20
f 2/21/21 1/22/22 9/23/23
f 9/23/23 1/22/22 12/24/24
f 9/25/25 12/26/26 10/27/27
f 10/27/27 12/26/26 11/28/28
f 13/29/29 14/30/30 5/31/31
f 5/31/31 14/30/30 6/32/32
f 5/33/33 8/34/34 13/35/35
f 13/35/35 8/34/34 15/36/36
f 14/37/37 16/38/38 6/39/39
f 6/39/39 16/38/38 7/40/40
f 8/41/41 7/42/42 15/43/43
f 15/43/43 7/42/42 16/44/44
f 13/45/45 15/46/46 14/47/47
f 14/47/47 15/46/46 16/48/48

# 16 vertices
# 48 texture params
# 48 normals
# 28 facets

# 1 groups
