# WaveFront *.obj file (generated by Autodesk ATF)

mtllib ServoOverServo.mtl

g Solid1

v 21.750000 14.000000 -6.400000
v 3.250000 14.000000 -6.400000
v 3.250000 3.700000 -6.400000
v 21.750000 3.700000 -6.400000
v 3.250000 14.000000 -4.000000
v 3.250000 3.700000 -4.000000
v 21.750000 14.000000 -4.000000
v 21.750000 3.700000 -4.000000
v 25.000000 0.000000 -14.000000
v 0.000000 0.000000 -14.000000
v 0.000000 14.000000 -14.000000
v 25.000000 14.000000 -14.000000
v 25.000000 0.000000 0.000000
v 25.000000 14.000000 0.000000
v 0.000000 0.000000 0.000000
v 0.000000 14.000000 0.000000
vt -1.850000 0.000000 0.000000
vt -0.000000 0.000000 0.000000
vt -1.850000 1.030000 0.000000
vt -0.000000 1.030000 0.000000
vt -0.240000 -0.000000 0.000000
vt 0.000000 0.000000 0.000000
vt -0.240000 1.030000 0.000000
vt -0.000000 1.030000 0.000000
vt -1.850000 0.000000 0.000000
vt 0.000000 0.000000 0.000000
vt -1.850000 1.030000 0.000000
vt -0.000000 1.030000 0.000000
vt -0.240000 0.000000 0.000000
vt -0.000000 0.000000 0.000000
vt -0.240000 1.030000 0.000000
vt -0.000000 1.030000 0.000000
vt 0.120000 0.925000 0.000000
vt -0.120000 0.925000 0.000000
vt 0.120000 -0.925000 0.000000
vt -0.120000 -0.925000 0.000000
vt 0.000000 0.000000 0.000000
vt 2.500000 0.000000 0.000000
vt 0.000000 1.400000 0.000000
vt 2.500000 1.400000 0.000000
vt 0.000000 0.000000 0.000000
vt 1.400000 0.000000 0.000000
vt 0.000000 1.400000 0.000000
vt 1.400000 1.400000 0.000000
vt 0.000000 0.000000 0.000000
vt 2.500000 0.000000 0.000000
vt 0.000000 1.400000 0.000000
vt 2.500000 1.400000 0.000000
vt 0.000000 0.000000 0.000000
vt 1.400000 0.000000 0.000000
vt 0.000000 1.400000 0.000000
vt 1.400000 1.400000 0.000000
vt 0.060000 0.925000 0.000000
vt -0.700000 -1.250000 0.000000
vt 0.060000 -0.925000 0.000000
vt 0.700000 -1.250000 0.000000
vt 0.300000 -0.925000 0.000000
vt 0.300000 0.925000 0.000000
vt 0.700000 1.250000 0.000000
vt -0.700000 1.250000 0.000000
vt -0.700000 -1.250000 0.000000
vt 0.700000 -1.250000 0.000000
vt -0.700000 1.250000 0.000000
vt 0.700000 1.250000 0.000000
vn 0.000000 0.000000 0.100000
vn 0.000000 0.000000 0.100000
vn 0.000000 0.000000 0.100000
vn 0.000000 0.000000 0.100000
vn 0.100000 0.000000 -0.000000
vn 0.100000 0.000000 -0.000000
vn 0.100000 0.000000 -0.000000
vn 0.100000 0.000000 -0.000000
vn 0.000000 0.000000 -0.100000
vn 0.000000 0.000000 -0.100000
vn 0.000000 0.000000 -0.100000
vn 0.000000 0.000000 -0.100000
vn -0.100000 0.000000 0.000000
vn -0.100000 0.000000 0.000000
vn -0.100000 0.000000 0.000000
vn -0.100000 0.000000 0.000000
vn -0.000000 0.100000 -0.000000
vn -0.000000 0.100000 -0.000000
vn -0.000000 0.100000 -0.000000
vn -0.000000 0.100000 -0.000000
vn 0.000000 0.000000 -0.100000
vn 0.000000 0.000000 -0.100000
vn 0.000000 0.000000 -0.100000
vn 0.000000 0.000000 -0.100000
vn 0.100000 -0.000000 0.000000
vn 0.100000 -0.000000 0.000000
vn 0.100000 -0.000000 0.000000
vn 0.100000 -0.000000 0.000000
vn 0.000000 0.000000 0.100000
vn 0.000000 0.000000 0.100000
vn 0.000000 0.000000 0.100000
vn 0.000000 0.000000 0.100000
vn -0.100000 0.000000 0.000000
vn -0.100000 0.000000 0.000000
vn -0.100000 0.000000 0.000000
vn -0.100000 0.000000 0.000000
vn 0.000000 0.100000 0.000000
vn 0.000000 0.100000 0.000000
vn 0.000000 0.100000 0.000000
vn 0.000000 0.100000 0.000000
vn 0.000000 0.100000 0.000000
vn 0.000000 0.100000 0.000000
vn 0.000000 0.100000 0.000000
vn 0.000000 0.100000 0.000000
vn 0.000000 -0.100000 0.000000
vn 0.000000 -0.100000 0.000000
vn 0.000000 -0.100000 0.000000
vn 0.000000 -0.100000 0.000000
usemtl 191,191,191
f 1/1/1 2/2/2 4/3/3
f 4/3/3 2/2/2 3/4/4
f 2/5/5 5/6/6 3/7/7
f 3/7/7 5/6/6 6/8/8
f 5/9/9 7/10/10 6/11/11
f 6/11/11 7/10/10 8/12/12
f 7/13/13 1/14/14 8/15/15
f 8/15/15 1/14/14 4/16/16
f 8/17/17 4/18/18 6/19/19
f 6/19/19 4/18/18 3/20/20
f 9/21/21 10/22/22 12/23/23
f 12/23/23 10/22/22 11/24/24
f 13/25/25 9/26/26 14/27/27
f 14/27/27 9/26/26 12/28/28
f 15/29/29 13/30/30 16/31/31
f 16/31/31 13/30/30 14/32/32
f 10/33/33 15/34/34 11/35/35
f 11/35/35 15/34/34 16/36/36
f 1/37/37 11/38/38 2/39/39
f 2/39/39 11/38/38 16/40/40
f 2/39/39 16/40/40 5/41/41
f 5/41/41 16/40/40 7/42/42
f 7/42/42 16/40/40 14/43/43
f 7/42/42 14/43/43 1/37/37
f 1/37/37 14/43/43 12/44/44
f 1/37/37 12/44/44 11/38/38
f 15/45/45 10/46/46 13/47/47
f 13/47/47 10/46/46 9/48/48

# 16 vertices
# 48 texture params
# 48 normals
# 28 facets

# 1 groups
